<?xml version="1.0" encoding="UTF-8"?>
<svg xmlns="http://www.w3.org/2000/svg" xmlns:xlink="http://www.w3.org/1999/xlink" width="1920" height="1080" viewBox="0 0 1920 1080">
<defs>
<g>
<g id="glyph-0-0">
<path d="M 0.214844 -0.242188 C 0.734375 -0.296875 1.0625 -0.394531 1.191406 -0.53125 C 1.320312 -0.667969 1.386719 -1.023438 1.386719 -1.601562 L 1.386719 -7.375 C 1.386719 -7.851562 1.3125 -8.164062 1.167969 -8.308594 C 1.023438 -8.449219 0.707031 -8.539062 0.214844 -8.574219 L 0.214844 -8.820312 L 3.917969 -8.820312 L 3.917969 -8.574219 C 3.429688 -8.539062 3.109375 -8.449219 2.960938 -8.308594 C 2.8125 -8.164062 2.742188 -7.855469 2.742188 -7.375 L 2.742188 -4.777344 L 6.785156 -4.777344 L 6.785156 -7.375 C 6.785156 -7.851562 6.710938 -8.164062 6.570312 -8.308594 C 6.425781 -8.449219 6.105469 -8.539062 5.613281 -8.574219 L 5.613281 -8.820312 L 9.316406 -8.820312 L 9.316406 -8.574219 C 8.824219 -8.539062 8.507812 -8.449219 8.363281 -8.308594 C 8.21875 -8.164062 8.144531 -7.855469 8.144531 -7.375 L 8.144531 -1.445312 C 8.144531 -0.960938 8.21875 -0.648438 8.363281 -0.511719 C 8.507812 -0.375 8.824219 -0.285156 9.316406 -0.242188 L 9.316406 0 L 5.613281 0 L 5.613281 -0.242188 C 6.136719 -0.292969 6.464844 -0.386719 6.589844 -0.527344 C 6.71875 -0.667969 6.785156 -1.023438 6.785156 -1.601562 L 6.785156 -4.191406 L 2.742188 -4.191406 L 2.742188 -1.445312 C 2.742188 -0.960938 2.816406 -0.648438 2.960938 -0.507812 C 3.109375 -0.367188 3.429688 -0.28125 3.917969 -0.242188 L 3.917969 0 L 0.214844 0 Z "/>
</g>
<g id="glyph-0-1">
<path d="M 0.339844 -3.019531 C 0.339844 -3.882812 0.613281 -4.613281 1.160156 -5.210938 C 1.710938 -5.808594 2.417969 -6.105469 3.28125 -6.105469 C 4.140625 -6.105469 4.851562 -5.824219 5.417969 -5.261719 C 5.980469 -4.695312 6.261719 -3.945312 6.261719 -3.007812 C 6.261719 -2.144531 5.988281 -1.394531 5.441406 -0.753906 C 4.894531 -0.117188 4.1875 0.203125 3.320312 0.203125 C 2.488281 0.203125 1.78125 -0.105469 1.203125 -0.714844 C 0.625 -1.328125 0.339844 -2.097656 0.339844 -3.019531 Z M 3.097656 -5.714844 C 2.753906 -5.714844 2.457031 -5.601562 2.207031 -5.378906 C 1.773438 -4.984375 1.554688 -4.300781 1.554688 -3.332031 C 1.554688 -2.558594 1.730469 -1.839844 2.078125 -1.171875 C 2.429688 -0.503906 2.914062 -0.167969 3.535156 -0.167969 C 4.019531 -0.167969 4.394531 -0.394531 4.65625 -0.839844 C 4.921875 -1.285156 5.050781 -1.871094 5.050781 -2.597656 C 5.050781 -3.347656 4.886719 -4.054688 4.550781 -4.71875 C 4.214844 -5.382812 3.734375 -5.714844 3.097656 -5.714844 Z "/>
</g>
<g id="glyph-0-2">
<path d="M 6.199219 -5.847656 C 5.9375 -5.816406 5.746094 -5.773438 5.617188 -5.714844 C 5.492188 -5.660156 5.429688 -5.546875 5.429688 -5.378906 C 5.429688 -5.285156 5.445312 -5.191406 5.472656 -5.09375 C 5.5 -4.996094 5.539062 -4.882812 5.585938 -4.753906 L 6.769531 -1.660156 L 7.929688 -4.484375 C 7.980469 -4.605469 8.039062 -4.765625 8.097656 -4.964844 C 8.160156 -5.160156 8.191406 -5.308594 8.191406 -5.410156 C 8.191406 -5.570312 8.140625 -5.679688 8.039062 -5.734375 C 7.941406 -5.792969 7.796875 -5.832031 7.605469 -5.859375 L 7.605469 -6.046875 L 9.257812 -6.046875 L 9.257812 -5.859375 C 9.148438 -5.835938 9.058594 -5.785156 8.992188 -5.703125 C 8.921875 -5.621094 8.824219 -5.425781 8.699219 -5.117188 L 6.613281 0.0195312 C 6.597656 0.0585938 6.582031 0.0859375 6.570312 0.105469 C 6.554688 0.121094 6.535156 0.128906 6.511719 0.128906 C 6.457031 0.105469 6.429688 0.0820312 6.417969 0.0664062 L 4.949219 -3.574219 L 3.234375 0.0507812 C 3.226562 0.0742188 3.214844 0.09375 3.199219 0.105469 C 3.183594 0.121094 3.167969 0.128906 3.144531 0.128906 C 3.09375 0.105469 3.0625 0.0820312 3.054688 0.0664062 L 1.105469 -4.734375 C 0.894531 -5.257812 0.753906 -5.566406 0.683594 -5.660156 C 0.613281 -5.753906 0.476562 -5.816406 0.273438 -5.847656 L 0.273438 -6.046875 L 2.683594 -6.046875 L 2.683594 -5.847656 C 2.484375 -5.828125 2.328125 -5.792969 2.222656 -5.738281 C 2.117188 -5.683594 2.0625 -5.570312 2.0625 -5.390625 C 2.0625 -5.265625 2.152344 -4.957031 2.332031 -4.464844 C 2.433594 -4.183594 2.566406 -3.839844 2.726562 -3.4375 L 3.46875 -1.589844 L 4.640625 -4.101562 L 4.65625 -4.179688 C 4.65625 -4.265625 4.609375 -4.429688 4.515625 -4.664062 C 4.421875 -4.902344 4.332031 -5.113281 4.246094 -5.300781 C 4.160156 -5.496094 4.058594 -5.628906 3.949219 -5.707031 C 3.839844 -5.78125 3.683594 -5.828125 3.484375 -5.847656 L 3.484375 -6.046875 L 6.199219 -6.046875 Z "/>
</g>
<g id="glyph-0-3">
<rect x="0" y="0" width="0" height="0" mask="url(#mask-0)"/>
</g>
<g id="glyph-0-4">
<path d="M 4.933594 -8.976562 C 5.449219 -8.976562 5.960938 -8.90625 6.457031 -8.761719 C 6.957031 -8.621094 7.242188 -8.546875 7.316406 -8.546875 C 7.507812 -8.546875 7.644531 -8.585938 7.722656 -8.660156 C 7.804688 -8.734375 7.875 -8.839844 7.929688 -8.976562 L 8.222656 -8.976562 L 8.328125 -6.171875 L 8.019531 -6.171875 C 7.746094 -6.820312 7.464844 -7.300781 7.175781 -7.617188 C 6.648438 -8.171875 5.964844 -8.449219 5.125 -8.449219 C 4.269531 -8.449219 3.515625 -8.125 2.867188 -7.476562 C 2.21875 -6.828125 1.894531 -5.757812 1.894531 -4.269531 C 1.894531 -3.042969 2.21875 -2.082031 2.863281 -1.394531 C 3.511719 -0.703125 4.308594 -0.359375 5.261719 -0.359375 C 5.421875 -0.359375 5.609375 -0.375 5.828125 -0.402344 C 6.042969 -0.433594 6.25 -0.480469 6.445312 -0.546875 C 6.761719 -0.652344 6.960938 -0.742188 7.039062 -0.816406 C 7.117188 -0.894531 7.15625 -1.003906 7.15625 -1.152344 L 7.15625 -3.28125 C 7.15625 -3.792969 7.082031 -4.113281 6.9375 -4.238281 C 6.792969 -4.363281 6.472656 -4.441406 5.984375 -4.472656 L 5.984375 -4.71875 L 9.382812 -4.71875 L 9.382812 -4.472656 C 9.050781 -4.449219 8.832031 -4.398438 8.722656 -4.308594 C 8.542969 -4.171875 8.449219 -3.882812 8.449219 -3.449219 L 8.449219 -0.828125 C 8.449219 -0.671875 8.066406 -0.460938 7.300781 -0.203125 C 6.535156 0.0585938 5.796875 0.1875 5.089844 0.1875 C 3.789062 0.1875 2.691406 -0.191406 1.796875 -0.949219 C 0.8125 -1.789062 0.320312 -2.914062 0.320312 -4.324219 C 0.320312 -5.566406 0.710938 -6.628906 1.496094 -7.511719 C 2.359375 -8.488281 3.507812 -8.976562 4.933594 -8.976562 Z "/>
</g>
<g id="glyph-0-5">
<path d="M 5.769531 -6.398438 C 5.769531 -7.214844 5.417969 -7.777344 4.714844 -8.078125 C 4.335938 -8.242188 3.859375 -8.328125 3.28125 -8.328125 C 3.007812 -8.328125 2.839844 -8.300781 2.777344 -8.246094 C 2.714844 -8.191406 2.683594 -8.070312 2.683594 -7.882812 L 2.683594 -4.40625 C 2.921875 -4.386719 3.078125 -4.371094 3.152344 -4.367188 C 3.226562 -4.363281 3.296875 -4.363281 3.367188 -4.363281 C 3.976562 -4.363281 4.460938 -4.449219 4.8125 -4.621094 C 5.449219 -4.9375 5.769531 -5.53125 5.769531 -6.398438 Z M 0.214844 -0.242188 C 0.722656 -0.289062 1.039062 -0.390625 1.164062 -0.542969 C 1.289062 -0.699219 1.355469 -1.050781 1.355469 -1.601562 L 1.355469 -7.375 C 1.355469 -7.839844 1.285156 -8.148438 1.140625 -8.292969 C 1 -8.441406 0.691406 -8.535156 0.214844 -8.574219 L 0.214844 -8.820312 L 3.730469 -8.820312 C 4.859375 -8.820312 5.722656 -8.601562 6.320312 -8.164062 C 6.921875 -7.726562 7.21875 -7.148438 7.21875 -6.433594 C 7.21875 -5.527344 6.886719 -4.867188 6.222656 -4.460938 C 5.558594 -4.050781 4.730469 -3.847656 3.730469 -3.847656 C 3.585938 -3.847656 3.402344 -3.851562 3.179688 -3.855469 C 2.957031 -3.863281 2.789062 -3.867188 2.683594 -3.867188 L 2.683594 -1.445312 C 2.683594 -0.941406 2.757812 -0.625 2.914062 -0.496094 C 3.066406 -0.363281 3.410156 -0.28125 3.945312 -0.242188 L 3.945312 0 L 0.214844 0 Z "/>
</g>
<g id="glyph-0-6">
<path d="M 3.964844 -8.820312 L 3.964844 -8.574219 C 3.453125 -8.539062 3.121094 -8.453125 2.96875 -8.316406 C 2.816406 -8.179688 2.742188 -7.867188 2.742188 -7.375 L 2.742188 -3.113281 C 2.742188 -2.414062 2.835938 -1.867188 3.027344 -1.476562 C 3.382812 -0.765625 4.058594 -0.410156 5.050781 -0.410156 C 6.140625 -0.410156 6.871094 -0.773438 7.246094 -1.503906 C 7.453125 -1.910156 7.558594 -2.542969 7.558594 -3.390625 L 7.558594 -6.863281 C 7.558594 -7.585938 7.472656 -8.042969 7.296875 -8.226562 C 7.125 -8.410156 6.792969 -8.527344 6.308594 -8.574219 L 6.308594 -8.820312 L 9.394531 -8.820312 L 9.394531 -8.574219 C 8.878906 -8.519531 8.539062 -8.394531 8.382812 -8.199219 C 8.222656 -8.007812 8.144531 -7.5625 8.144531 -6.863281 L 8.144531 -3.390625 C 8.144531 -2.472656 8.003906 -1.753906 7.722656 -1.238281 C 7.199219 -0.285156 6.210938 0.1875 4.753906 0.1875 C 3.3125 0.1875 2.332031 -0.28125 1.808594 -1.21875 C 1.527344 -1.722656 1.386719 -2.386719 1.386719 -3.210938 L 1.386719 -7.375 C 1.386719 -7.863281 1.3125 -8.171875 1.160156 -8.308594 C 1.011719 -8.445312 0.6875 -8.535156 0.183594 -8.574219 L 0.183594 -8.820312 Z "/>
</g>
<g id="glyph-0-7">
<path d="M 0.691406 -2.050781 L 0.90625 -2.050781 C 1.003906 -1.554688 1.140625 -1.175781 1.308594 -0.910156 C 1.613281 -0.425781 2.058594 -0.183594 2.644531 -0.183594 C 2.96875 -0.183594 3.226562 -0.273438 3.414062 -0.453125 C 3.601562 -0.632812 3.699219 -0.867188 3.699219 -1.152344 C 3.699219 -1.335938 3.644531 -1.511719 3.535156 -1.679688 C 3.425781 -1.847656 3.234375 -2.015625 2.960938 -2.175781 L 2.234375 -2.589844 C 1.699219 -2.878906 1.304688 -3.167969 1.054688 -3.457031 C 0.804688 -3.746094 0.675781 -4.089844 0.675781 -4.484375 C 0.675781 -4.972656 0.851562 -5.371094 1.199219 -5.683594 C 1.546875 -5.996094 1.980469 -6.152344 2.507812 -6.152344 C 2.738281 -6.152344 2.988281 -6.109375 3.265625 -6.023438 C 3.539062 -5.9375 3.695312 -5.890625 3.730469 -5.890625 C 3.808594 -5.890625 3.863281 -5.902344 3.898438 -5.925781 C 3.933594 -5.945312 3.964844 -5.980469 3.992188 -6.027344 L 4.148438 -6.027344 L 4.191406 -4.210938 L 3.992188 -4.210938 C 3.90625 -4.632812 3.785156 -4.960938 3.640625 -5.195312 C 3.371094 -5.628906 2.980469 -5.847656 2.472656 -5.847656 C 2.167969 -5.847656 1.929688 -5.753906 1.757812 -5.566406 C 1.585938 -5.378906 1.496094 -5.160156 1.496094 -4.910156 C 1.496094 -4.511719 1.796875 -4.152344 2.394531 -3.839844 L 3.253906 -3.378906 C 4.179688 -2.875 4.640625 -2.289062 4.640625 -1.621094 C 4.640625 -1.109375 4.449219 -0.691406 4.066406 -0.363281 C 3.683594 -0.0390625 3.179688 0.125 2.558594 0.125 C 2.296875 0.125 2.003906 0.0820312 1.671875 -0.0078125 C 1.34375 -0.09375 1.148438 -0.136719 1.085938 -0.136719 C 1.035156 -0.136719 0.988281 -0.117188 0.949219 -0.0820312 C 0.910156 -0.0429688 0.882812 0 0.859375 0.0507812 L 0.691406 0.0507812 Z "/>
</g>
<g id="glyph-0-8">
<path d="M 3.328125 -8.820312 L 3.328125 -8.574219 C 3.0625 -8.566406 2.875 -8.542969 2.761719 -8.503906 C 2.5625 -8.429688 2.460938 -8.292969 2.460938 -8.097656 C 2.460938 -8.011719 2.472656 -7.925781 2.496094 -7.84375 C 2.519531 -7.761719 2.554688 -7.65625 2.605469 -7.527344 L 4.53125 -2.511719 L 5.949219 -6.277344 L 5.320312 -7.882812 C 5.203125 -8.179688 5.027344 -8.375 4.792969 -8.476562 C 4.652344 -8.539062 4.441406 -8.570312 4.160156 -8.574219 L 4.160156 -8.820312 L 7.726562 -8.820312 L 7.726562 -8.574219 C 7.394531 -8.570312 7.164062 -8.546875 7.039062 -8.503906 C 6.839844 -8.429688 6.738281 -8.277344 6.738281 -8.046875 C 6.738281 -7.96875 6.746094 -7.898438 6.765625 -7.839844 C 6.78125 -7.78125 6.824219 -7.664062 6.894531 -7.480469 L 8.820312 -2.480469 L 10.488281 -7.003906 C 10.582031 -7.261719 10.648438 -7.488281 10.683594 -7.6875 C 10.707031 -7.800781 10.714844 -7.894531 10.714844 -7.960938 C 10.714844 -8.210938 10.597656 -8.382812 10.363281 -8.476562 C 10.234375 -8.53125 10.039062 -8.566406 9.777344 -8.574219 L 9.777344 -8.820312 L 12.421875 -8.820312 L 12.421875 -8.574219 C 12.183594 -8.539062 12 -8.484375 11.875 -8.410156 C 11.648438 -8.285156 11.480469 -8.070312 11.367188 -7.761719 L 9.949219 -3.796875 L 9.394531 -2.265625 L 8.59375 0.15625 L 8.390625 0.15625 L 7.851562 -1.386719 L 6.261719 -5.488281 L 4.210938 0.15625 L 4.011719 0.15625 L 3.054688 -2.617188 L 1.90625 -5.734375 C 1.433594 -7.019531 1.105469 -7.808594 0.921875 -8.101562 C 0.738281 -8.394531 0.449219 -8.550781 0.0585938 -8.574219 L 0.0585938 -8.820312 Z "/>
</g>
<g id="glyph-0-9">
<path d="M 0.0585938 -0.214844 C 0.457031 -0.25 0.722656 -0.320312 0.851562 -0.425781 C 0.984375 -0.53125 1.046875 -0.757812 1.046875 -1.105469 L 1.046875 -4.042969 C 1.046875 -4.472656 1.007812 -4.78125 0.925781 -4.964844 C 0.847656 -5.148438 0.699219 -5.242188 0.488281 -5.242188 C 0.445312 -5.242188 0.386719 -5.234375 0.316406 -5.222656 C 0.246094 -5.214844 0.167969 -5.199219 0.0898438 -5.183594 L 0.0898438 -5.398438 C 0.339844 -5.484375 0.59375 -5.574219 0.851562 -5.664062 C 1.113281 -5.753906 1.292969 -5.820312 1.394531 -5.859375 C 1.609375 -5.941406 1.832031 -6.035156 2.0625 -6.140625 C 2.09375 -6.140625 2.113281 -6.128906 2.117188 -6.105469 C 2.125 -6.085938 2.128906 -6.039062 2.128906 -5.96875 L 2.128906 -4.902344 C 2.40625 -5.289062 2.675781 -5.589844 2.933594 -5.808594 C 3.191406 -6.023438 3.460938 -6.132812 3.738281 -6.132812 C 3.957031 -6.132812 4.136719 -6.066406 4.277344 -5.933594 C 4.417969 -5.800781 4.484375 -5.636719 4.484375 -5.4375 C 4.484375 -5.257812 4.433594 -5.109375 4.324219 -4.988281 C 4.21875 -4.867188 4.085938 -4.804688 3.925781 -4.804688 C 3.761719 -4.804688 3.59375 -4.878906 3.425781 -5.03125 C 3.261719 -5.183594 3.128906 -5.261719 3.035156 -5.261719 C 2.882812 -5.261719 2.695312 -5.136719 2.472656 -4.890625 C 2.253906 -4.648438 2.140625 -4.394531 2.140625 -4.132812 L 2.140625 -1.199219 C 2.140625 -0.824219 2.230469 -0.566406 2.402344 -0.417969 C 2.574219 -0.273438 2.863281 -0.207031 3.269531 -0.214844 L 3.269531 0 L 0.0585938 0 Z "/>
</g>
<g id="glyph-0-10">
<path d="M 0.0273438 -0.183594 C 0.441406 -0.214844 0.71875 -0.28125 0.847656 -0.390625 C 0.980469 -0.5 1.046875 -0.734375 1.046875 -1.09375 L 1.046875 -7.617188 C 1.046875 -7.925781 0.996094 -8.121094 0.890625 -8.203125 C 0.789062 -8.285156 0.636719 -8.328125 0.441406 -8.328125 C 0.359375 -8.328125 0.289062 -8.324219 0.226562 -8.320312 C 0.167969 -8.316406 0.101562 -8.308594 0.0273438 -8.300781 L 0.0273438 -8.484375 L 0.613281 -8.640625 C 1.058594 -8.757812 1.4375 -8.867188 1.75 -8.972656 C 1.941406 -9.035156 2.054688 -9.070312 2.082031 -9.070312 C 2.109375 -9.070312 2.125 -9.0625 2.132812 -9.050781 C 2.140625 -9.042969 2.140625 -9.015625 2.140625 -8.976562 L 2.140625 -3.503906 L 3.945312 -5.089844 C 4.074219 -5.207031 4.164062 -5.300781 4.207031 -5.371094 C 4.253906 -5.441406 4.277344 -5.5 4.277344 -5.554688 C 4.277344 -5.652344 4.226562 -5.714844 4.128906 -5.742188 C 4.03125 -5.769531 3.859375 -5.789062 3.605469 -5.800781 L 3.605469 -5.984375 L 6.320312 -5.984375 L 6.320312 -5.800781 C 5.835938 -5.769531 5.445312 -5.671875 5.148438 -5.511719 C 4.855469 -5.347656 4.289062 -4.882812 3.449219 -4.113281 L 3.066406 -3.761719 L 4.269531 -2.199219 C 4.886719 -1.402344 5.351562 -0.871094 5.664062 -0.609375 C 5.976562 -0.347656 6.308594 -0.199219 6.660156 -0.167969 L 6.660156 0 L 3.761719 0 L 3.761719 -0.183594 L 3.992188 -0.195312 C 4.066406 -0.199219 4.132812 -0.214844 4.191406 -0.242188 C 4.253906 -0.265625 4.285156 -0.308594 4.285156 -0.371094 C 4.285156 -0.417969 4.273438 -0.464844 4.25 -0.503906 C 4.230469 -0.546875 4.199219 -0.59375 4.160156 -0.644531 L 2.140625 -3.300781 L 2.140625 -0.890625 C 2.140625 -0.59375 2.253906 -0.394531 2.472656 -0.292969 C 2.605469 -0.230469 2.828125 -0.199219 3.144531 -0.195312 L 3.144531 0 L 0.0273438 0 Z "/>
</g>
</g>
<image id="source-8" x="0" y="0" width="0" height="0"/>
<mask id="mask-0">
<use xlink:href="#source-8"/>
</mask>
</defs>
<g fill="rgb(100%, 100%, 100%)" fill-opacity="1">
<use xlink:href="#glyph-0-0" x="30" y="30"/>
<use xlink:href="#glyph-0-1" x="40" y="30"/>
<use xlink:href="#glyph-0-2" x="47" y="30"/>
<use xlink:href="#glyph-0-3" x="57" y="30"/>
<use xlink:href="#glyph-0-4" x="60" y="30"/>
<use xlink:href="#glyph-0-5" x="70" y="30"/>
<use xlink:href="#glyph-0-6" x="77" y="30"/>
<use xlink:href="#glyph-0-7" x="87" y="30"/>
<use xlink:href="#glyph-0-3" x="92" y="30"/>
<use xlink:href="#glyph-0-8" x="95" y="30"/>
<use xlink:href="#glyph-0-1" x="106" y="30"/>
<use xlink:href="#glyph-0-9" x="113" y="30"/>
<use xlink:href="#glyph-0-10" x="117" y="30"/>
</g>
</svg>
